<?xml version="1.0" encoding="UTF-8"?>
<svg xmlns="http://www.w3.org/2000/svg" width="128" height="128" viewBox="0 0 128 128" role="img" aria-label="鲜血领主">
  <defs>
    <radialGradient id="bgGrad" cx="50%" cy="36%" r="70%">
      <stop offset="0%" stop-color="#3d1619"/>
      <stop offset="64%" stop-color="#190b0e"/>
      <stop offset="100%" stop-color="#070606"/>
    </radialGradient>
    <linearGradient id="mainGrad" x1="30" y1="20" x2="94" y2="108" gradientUnits="userSpaceOnUse">
      <stop offset="0%" stop-color="#ffd1da"/>
      <stop offset="48%" stop-color="#ff4d6f"/>
      <stop offset="100%" stop-color="#5a0c1b"/>
    </linearGradient>
    <linearGradient id="edgeGrad" x1="20" y1="20" x2="108" y2="108" gradientUnits="userSpaceOnUse">
      <stop offset="0%" stop-color="#ff6b72"/>
      <stop offset="100%" stop-color="#ff4d6f"/>
    </linearGradient>
    <filter id="softGlow" x="-30%" y="-30%" width="160%" height="160%">
      <feDropShadow dx="0" dy="0" stdDeviation="4" flood-color="#ff6b72" flood-opacity=".45"/>
      <feDropShadow dx="0" dy="4" stdDeviation="5" flood-color="#000000" flood-opacity=".45"/>
    </filter>
  </defs>
  <rect x="5" y="5" width="118" height="118" rx="24" fill="#080706"/>
  <circle cx="64" cy="64" r="56" fill="url(#bgGrad)" stroke="#ff6b72" stroke-width="3.5"/>
  <circle cx="64" cy="64" r="47" fill="none" stroke="#ff6b72" stroke-width="1.5" opacity=".36"/>
  <path d="M27 34 C44 17 84 17 101 34" fill="none" stroke="#fff4c8" stroke-width="3" opacity=".12" stroke-linecap="round"/>
  <g opacity=".95"><circle cx="25" cy="27" r="5.5" fill="#ff6b72" opacity=".72"/>
<path d="M103 23.5 L108.5 29 L103 34.5 L97.5 29 Z" fill="#ff6b72" opacity=".68"/>
<path d="M104 94.5 L107.5 98 L104 101.5 L100.5 98 Z" fill="#ff6b72" opacity=".68"/>
<path d="M64 108.5 L66.5 111 L64 113.5 L61.5 111 Z" fill="#ff6b72" opacity=".68"/>
<path d="M110 58.5 L115.5 64 L110 69.5 L104.5 64 Z" fill="#ff6b72" opacity=".68"/></g>
  <g filter="url(#softGlow)" transform="rotate(-4 64 64) scale(0.96) translate(2.5600000000000023 2.5600000000000023)">
    
    <path d="M64 18 C78 43 96 61 96 80 C96 99 82 111 64 111 C46 111 32 99 32 80 C32 61 50 43 64 18 Z" fill="url(#mainGrad)" stroke="#ffd1da" stroke-width="3"/>
    <path d="M49 78 C52 91 62 96 73 92" fill="none" stroke="#5a0c1b" stroke-width="5" opacity=".42" stroke-linecap="round"/>
    <path d="M68 36 C75 50 83 61 85 74" fill="none" stroke="#fff0f3" stroke-width="4" opacity=".68" stroke-linecap="round"/>
  </g>
  <path d="M24 104 C44 114 84 114 104 104" fill="none" stroke="#000000" stroke-width="8" opacity=".18" stroke-linecap="round"/>
</svg>
