<?xml version="1.0" encoding="UTF-8"?>
<svg xmlns="http://www.w3.org/2000/svg" width="128" height="128" viewBox="0 0 128 128" role="img" aria-label="元素连锁">
  <defs>
    <radialGradient id="bgGrad" cx="50%" cy="36%" r="70%">
      <stop offset="0%" stop-color="#2b1d3f"/>
      <stop offset="64%" stop-color="#140d1e"/>
      <stop offset="100%" stop-color="#070606"/>
    </radialGradient>
    <linearGradient id="mainGrad" x1="30" y1="20" x2="94" y2="108" gradientUnits="userSpaceOnUse">
      <stop offset="0%" stop-color="#e6ffd5"/>
      <stop offset="48%" stop-color="#7cff6b"/>
      <stop offset="100%" stop-color="#173d15"/>
    </linearGradient>
    <linearGradient id="edgeGrad" x1="20" y1="20" x2="108" y2="108" gradientUnits="userSpaceOnUse">
      <stop offset="0%" stop-color="#b586ff"/>
      <stop offset="100%" stop-color="#7cff6b"/>
    </linearGradient>
    <filter id="softGlow" x="-30%" y="-30%" width="160%" height="160%">
      <feDropShadow dx="0" dy="0" stdDeviation="4" flood-color="#b586ff" flood-opacity=".45"/>
      <feDropShadow dx="0" dy="4" stdDeviation="5" flood-color="#000000" flood-opacity=".45"/>
    </filter>
  </defs>
  <rect x="5" y="5" width="118" height="118" rx="24" fill="#080706"/>
  <circle cx="64" cy="64" r="56" fill="url(#bgGrad)" stroke="#b586ff" stroke-width="3.5"/>
  <circle cx="64" cy="64" r="47" fill="none" stroke="#b586ff" stroke-width="1.5" opacity=".36"/>
  <path d="M27 34 C44 17 84 17 101 34" fill="none" stroke="#fff4c8" stroke-width="3" opacity=".12" stroke-linecap="round"/>
  <g opacity=".95"><circle cx="25" cy="27" r="4.5" fill="#b586ff" opacity=".72"/>
<path d="M103 25.5 L106.5 29 L103 32.5 L99.5 29 Z" fill="#b586ff" opacity=".68"/>
<circle cx="18" cy="64" r="2.5" fill="#b586ff" opacity=".72"/></g>
  <g filter="url(#softGlow)" transform="rotate(-3 64 64) scale(0.8999999999999999) translate(6.400000000000006 6.400000000000006)">
    
    <path d="M52 24 H76 V38 L88 82 Q92 99 75 105 H53 Q36 99 40 82 L52 38 Z" fill="url(#mainGrad)" stroke="#eaffdc" stroke-width="3"/>
    <path d="M49 24 H79" stroke="#173d15" stroke-width="7" stroke-linecap="round"/>
    <path d="M47 76 C58 69 69 85 81 73" fill="none" stroke="#173d15" stroke-width="5" opacity=".52" stroke-linecap="round"/>
    <circle cx="57" cy="63" r="5" fill="#eaffdc" opacity=".75"/>
    <circle cx="74" cy="88" r="4" fill="#eaffdc" opacity=".55"/>
  </g>
  <path d="M24 104 C44 114 84 114 104 104" fill="none" stroke="#000000" stroke-width="8" opacity=".18" stroke-linecap="round"/>
</svg>
