<?xml version="1.0" encoding="UTF-8"?>
<svg xmlns="http://www.w3.org/2000/svg" width="128" height="128" viewBox="0 0 128 128" role="img" aria-label="法术涌动">
  <defs>
    <radialGradient id="bgGrad" cx="50%" cy="36%" r="70%">
      <stop offset="0%" stop-color="#242321"/>
      <stop offset="64%" stop-color="#11100f"/>
      <stop offset="100%" stop-color="#070606"/>
    </radialGradient>
    <linearGradient id="mainGrad" x1="30" y1="20" x2="94" y2="108" gradientUnits="userSpaceOnUse">
      <stop offset="0%" stop-color="#f5fdff"/>
      <stop offset="48%" stop-color="#8cc8ff"/>
      <stop offset="100%" stop-color="#16315a"/>
    </linearGradient>
    <linearGradient id="edgeGrad" x1="20" y1="20" x2="108" y2="108" gradientUnits="userSpaceOnUse">
      <stop offset="0%" stop-color="#d8d4ca"/>
      <stop offset="100%" stop-color="#8cc8ff"/>
    </linearGradient>
    <filter id="softGlow" x="-30%" y="-30%" width="160%" height="160%">
      <feDropShadow dx="0" dy="0" stdDeviation="4" flood-color="#d8d4ca" flood-opacity=".45"/>
      <feDropShadow dx="0" dy="4" stdDeviation="5" flood-color="#000000" flood-opacity=".45"/>
    </filter>
  </defs>
  <rect x="5" y="5" width="118" height="118" rx="24" fill="#080706"/>
  <circle cx="64" cy="64" r="56" fill="url(#bgGrad)" stroke="#d8d4ca" stroke-width="3.5"/>
  <circle cx="64" cy="64" r="47" fill="none" stroke="#d8d4ca" stroke-width="1.5" opacity=".36"/>
  <path d="M27 34 C44 17 84 17 101 34" fill="none" stroke="#fff4c8" stroke-width="3" opacity=".12" stroke-linecap="round"/>
  <g opacity=".95"><path d="M103 26.5 L105.5 29 L103 31.5 L100.5 29 Z" fill="#d8d4ca" opacity=".68"/>
<circle cx="24" cy="99" r="2.5" fill="#d8d4ca" opacity=".72"/>
<path d="M104 95.5 L106.5 98 L104 100.5 L101.5 98 Z" fill="#d8d4ca" opacity=".68"/>
<circle cx="64" cy="17" r="4.5" fill="#d8d4ca" opacity=".72"/>
<path d="M110 58.5 L115.5 64 L110 69.5 L104.5 64 Z" fill="#d8d4ca" opacity=".68"/></g>
  <g filter="url(#softGlow)" transform="rotate(-3 64 64) scale(0.9099999999999999) translate(5.760000000000005 5.760000000000005)">
    
    <circle cx="64" cy="64" r="35" fill="url(#mainGrad)" stroke="#effbff" stroke-width="3"/>
    <circle cx="64" cy="64" r="20" fill="none" stroke="#ffffff" stroke-width="3" opacity=".72"/>
    <path d="M64 25 V44 M64 84 V103 M25 64 H44 M84 64 H103 M38 38 L51 51 M90 38 L77 51 M38 90 L51 77 M90 90 L77 77" stroke="url(#edgeGrad)" stroke-width="5" stroke-linecap="round"/>
    <circle cx="64" cy="64" r="8" fill="#fff"/>
  </g>
  <path d="M24 104 C44 114 84 114 104 104" fill="none" stroke="#000000" stroke-width="8" opacity=".18" stroke-linecap="round"/>
</svg>
