<?xml version="1.0" encoding="UTF-8"?>
<svg xmlns="http://www.w3.org/2000/svg" width="128" height="128" viewBox="0 0 128 128" role="img" aria-label="荆棘护盾">
  <defs>
    <radialGradient id="bgGrad" cx="50%" cy="36%" r="70%">
      <stop offset="0%" stop-color="#3d2912"/>
      <stop offset="64%" stop-color="#1d1309"/>
      <stop offset="100%" stop-color="#070606"/>
    </radialGradient>
    <linearGradient id="mainGrad" x1="30" y1="20" x2="94" y2="108" gradientUnits="userSpaceOnUse">
      <stop offset="0%" stop-color="#e8ffd0"/>
      <stop offset="48%" stop-color="#69dc66"/>
      <stop offset="100%" stop-color="#173d19"/>
    </linearGradient>
    <linearGradient id="edgeGrad" x1="20" y1="20" x2="108" y2="108" gradientUnits="userSpaceOnUse">
      <stop offset="0%" stop-color="#ffc15b"/>
      <stop offset="100%" stop-color="#69dc66"/>
    </linearGradient>
    <filter id="softGlow" x="-30%" y="-30%" width="160%" height="160%">
      <feDropShadow dx="0" dy="0" stdDeviation="4" flood-color="#ffc15b" flood-opacity=".45"/>
      <feDropShadow dx="0" dy="4" stdDeviation="5" flood-color="#000000" flood-opacity=".45"/>
    </filter>
  </defs>
  <rect x="5" y="5" width="118" height="118" rx="24" fill="#080706"/>
  <circle cx="64" cy="64" r="56" fill="url(#bgGrad)" stroke="#ffc15b" stroke-width="3.5"/>
  <circle cx="64" cy="64" r="47" fill="none" stroke="#ffc15b" stroke-width="1.5" opacity=".36"/>
  <path d="M27 34 C44 17 84 17 101 34" fill="none" stroke="#fff4c8" stroke-width="3" opacity=".12" stroke-linecap="round"/>
  <g opacity=".95"><circle cx="25" cy="27" r="2.5" fill="#ffc15b" opacity=".72"/>
<path d="M104 95.5 L106.5 98 L104 100.5 L101.5 98 Z" fill="#ffc15b" opacity=".68"/>
<path d="M110 58.5 L115.5 64 L110 69.5 L104.5 64 Z" fill="#ffc15b" opacity=".68"/></g>
  <g filter="url(#softGlow)" transform="rotate(2 64 64) scale(0.96) translate(2.5600000000000023 2.5600000000000023)">
    
    <path d="M31 80 C44 38 75 23 101 27 C95 58 78 91 39 101 C42 88 47 76 57 62" fill="url(#mainGrad)" stroke="#e8ffd0" stroke-width="3" stroke-linejoin="round"/>
    <path d="M34 100 C51 73 66 55 98 29" fill="none" stroke="#17401a" stroke-width="5" opacity=".5" stroke-linecap="round"/>
    <path d="M45 74 C38 68 33 61 31 51 M63 58 C58 48 57 40 60 31 M74 75 C85 73 94 69 101 62" fill="none" stroke="#e8ffd0" stroke-width="4" opacity=".68" stroke-linecap="round"/>
  </g>
  <path d="M24 104 C44 114 84 114 104 104" fill="none" stroke="#000000" stroke-width="8" opacity=".18" stroke-linecap="round"/>
</svg>
