<?xml version="1.0" encoding="UTF-8"?>
<svg xmlns="http://www.w3.org/2000/svg" width="128" height="128" viewBox="0 0 128 128" role="img" aria-label="控制强化">
  <defs>
    <radialGradient id="bgGrad" cx="50%" cy="36%" r="70%">
      <stop offset="0%" stop-color="#183528"/>
      <stop offset="64%" stop-color="#0c1712"/>
      <stop offset="100%" stop-color="#070606"/>
    </radialGradient>
    <linearGradient id="mainGrad" x1="30" y1="20" x2="94" y2="108" gradientUnits="userSpaceOnUse">
      <stop offset="0%" stop-color="#fff5ff"/>
      <stop offset="48%" stop-color="#d5b4ff"/>
      <stop offset="100%" stop-color="#2c1a50"/>
    </linearGradient>
    <linearGradient id="edgeGrad" x1="20" y1="20" x2="108" y2="108" gradientUnits="userSpaceOnUse">
      <stop offset="0%" stop-color="#69de84"/>
      <stop offset="100%" stop-color="#d5b4ff"/>
    </linearGradient>
    <filter id="softGlow" x="-30%" y="-30%" width="160%" height="160%">
      <feDropShadow dx="0" dy="0" stdDeviation="4" flood-color="#69de84" flood-opacity=".45"/>
      <feDropShadow dx="0" dy="4" stdDeviation="5" flood-color="#000000" flood-opacity=".45"/>
    </filter>
  </defs>
  <rect x="5" y="5" width="118" height="118" rx="24" fill="#080706"/>
  <circle cx="64" cy="64" r="56" fill="url(#bgGrad)" stroke="#69de84" stroke-width="3.5"/>
  <circle cx="64" cy="64" r="47" fill="none" stroke="#69de84" stroke-width="1.5" opacity=".36"/>
  <path d="M27 34 C44 17 84 17 101 34" fill="none" stroke="#fff4c8" stroke-width="3" opacity=".12" stroke-linecap="round"/>
  <g opacity=".95"><circle cx="24" cy="99" r="3.5" fill="#69de84" opacity=".72"/>
<path d="M64 105.5 L69.5 111 L64 116.5 L58.5 111 Z" fill="#69de84" opacity=".68"/></g>
  <g filter="url(#softGlow)" transform="rotate(-2 64 64) scale(1.02) translate(-1.2800000000000011 -1.2800000000000011)">
    
    <path d="M42 20 H86 L76 50 Q73 59 64 64 Q55 59 52 50 Z" fill="url(#mainGrad)" stroke="#fff5ff" stroke-width="3"/>
    <path d="M42 108 H86 L76 78 Q73 69 64 64 Q55 69 52 78 Z" fill="url(#mainGrad)" stroke="#fff5ff" stroke-width="3"/>
    <path d="M39 20 H89 M39 108 H89" stroke="url(#edgeGrad)" stroke-width="7" stroke-linecap="round"/>
    <path d="M55 48 C60 53 68 53 73 48 M55 80 C60 75 68 75 73 80" fill="none" stroke="#2c1a50" stroke-width="4" opacity=".5"/>
  </g>
  <path d="M24 104 C44 114 84 114 104 104" fill="none" stroke="#000000" stroke-width="8" opacity=".18" stroke-linecap="round"/>
</svg>
